<svg xmlns="http://www.w3.org/2000/svg" viewBox="0 0 274.9 274.9"><title>Asset 89</title><g id="Layer_2" data-name="Layer 2"><g id="Layer_1-2" data-name="Layer 1"><circle cx="137.45" cy="137.45" r="137.45" fill="#38b1e1"/><path d="M195.8,89.51s-52.3-34.35-61.26,30.82c0,0-30.69,6.57-72.11-34.86,0,0-16.17,26.05,9.6,46.37L57.42,127.4s.46,29.81,26.23,34.36H70.51s0,19.7,29.81,24.25c0,0-3,13.64-48.5,15.15,0,0,46,38.4,109.12,0,0,0,45.47-31.83,44.46-86.39l17.68-19.19-19.19,4.54s11.61-8,13.64-19.66C217.53,80.46,203.38,90,195.8,89.51Z" fill="#fff"/></g></g></svg>