<svg xmlns="http://www.w3.org/2000/svg" viewBox="0 0 274.9 274.9"><title>Asset 94</title><g id="Layer_2" data-name="Layer 2"><g id="Layer_1-2" data-name="Layer 1"><circle cx="137.45" cy="137.45" r="137.45" fill="#c92a90"/><path d="M176,224.47H98.91a47.77,47.77,0,0,1-47.72-47.71V99.67A47.78,47.78,0,0,1,98.91,52H176a47.78,47.78,0,0,1,47.72,47.71v77.09A47.77,47.77,0,0,1,176,224.47ZM98.91,68.8A30.91,30.91,0,0,0,68,99.67v77.09a30.91,30.91,0,0,0,30.88,30.87H176a30.91,30.91,0,0,0,30.88-30.87V99.67A30.91,30.91,0,0,0,176,68.8Z" fill="#fff"/><path d="M137.45,170.6a37.13,37.13,0,1,1,37.13-37.13A37.17,37.17,0,0,1,137.45,170.6Zm0-57.41a20.29,20.29,0,1,0,20.29,20.28A20.31,20.31,0,0,0,137.45,113.19Z" fill="#fff"/><circle cx="182.52" cy="86.77" r="10.11" fill="#fff"/></g></g></svg>